<svg xmlns="http://www.w3.org/2000/svg" x="0px" y="0px" width="36" height="36" viewBox="0,0,256,256">
<defs><linearGradient x1="15.44" y1="12.648" x2="65.381" y2="72.165" gradientUnits="userSpaceOnUse" id="color-1_n6zycyXovXiZ_gr1"><stop offset="0" stop-color="#ffffff" stop-opacity="0"></stop><stop offset="1" stop-color="#9d9d9d"></stop></linearGradient><linearGradient x1="-5.859" y1="-5.859" x2="46.64" y2="46.64" gradientUnits="userSpaceOnUse" id="color-2_n6zycyXovXiZ_gr2"><stop offset="0" stop-color="#ffffff" stop-opacity="0"></stop><stop offset="1" stop-color="#9d9d9d"></stop></linearGradient></defs><g fill="none" fill-rule="nonzero" stroke="none" stroke-width="1" stroke-linecap="butt" stroke-linejoin="miter" stroke-miterlimit="10" stroke-dasharray="" stroke-dashoffset="0" font-family="none" font-weight="none" font-size="none" text-anchor="none" style="mix-blend-mode: normal"><g transform="scale(5.33333,5.33333)"><path d="M25,19v2h5l-0.678,3.392c-0.187,0.935 -1.008,1.608 -1.961,1.608h-2.361v12h-3c-1.105,0 -2,-0.895 -2,-2v-10h-4v-3c0,-1.105 0.895,-2 2,-2h2v-3c0,-5 3,-7 7,-7c2.045,0 3,0.354 3,0.354v2.646c0,1.105 -0.895,2 -2,2h-0.518c-1.806,0 -2.482,1.07 -2.482,3z" fill="url(#color-1_n6zycyXovXiZ_gr1)"></path><path d="M26.04,4.101c-12.648,-1.252 -23.191,9.291 -21.939,21.94c0.927,9.36 8.498,16.931 17.858,17.858c12.649,1.253 23.192,-9.291 21.939,-21.94c-0.926,-9.36 -8.497,-16.931 -17.858,-17.858zM30,14c0,1.105 -0.895,2 -2,2h-0.518c-1.806,0 -2.482,1.07 -2.482,3v2h5l-0.678,3.391c-0.187,0.936 -1.008,1.609 -1.962,1.609h-2.36v12h-3c-1.105,0 -2,-0.895 -2,-2v-10h-4v-3c0,-1.105 0.895,-2 2,-2h2v-3c0,-5 3,-7 7,-7c2.045,0 3,0.354 3,0.354z" fill="url(#color-2_n6zycyXovXiZ_gr2)"></path></g></g>
</svg>