<?xml version="1.0" encoding="UTF-8"?>
<svg id="Layer_1" data-name="Layer 1" xmlns="http://www.w3.org/2000/svg" viewBox="0 0 737.64 466.06">
  <defs>
    <style>
      .cls-1, .cls-2, .cls-3, .cls-4, .cls-5 {
        stroke: #231f20;
        stroke-miterlimit: 10;
      }

      .cls-1, .cls-6 {
        fill: none;
      }

      .cls-2 {
        fill: #fff;
      }

      .cls-4 {
        fill: #231f20;
      }

      .cls-6 {
        stroke-width: 0px;
      }

      .cls-5 {
        fill: #ed1c24;
      }
    </style>
  </defs>
  <line class="cls-1" x1="141.06" y1="261.38" x2="141.06" y2="261.38"/>
  <path class="cls-2" d="M524.1,328.5c0,8.23,1.22,20.84-6.31,20.84s-19.24,1.82-19.24-6.41-.76-20.38,6.77-20.38,18.78-2.28,18.78,5.94Z"/>
  <g>
    <path class="cls-3" d="M368.44,190.83c-8.2,3.78-17.34,3.01-26.02,4.4-26.35,4.23-52.32,10.27-73.68,25.46-29.7,21.11-63.36,28.36-99.97,30.35-25.33,1.37-50.16,7.22-74.09,15.41-6.78,2.32-13.33,5.22-19.96,7.9-15.28,6.17-26.66,14-21.07,32.22,1.6,5.21,2.32,11.5-4.06,17.25-6.83,6.16,6.28,28.74,18.56,30.58-11.04-5.7-11.77-14.66-13.63-23.1-.28-1.26-.54-3.31.19-3.84,10.39-7.61,6.43-18.22,6.49-27.65.04-6.26,2.29-9.69,7.99-12.52,23.37-11.6,48.85-16.69,74.72-20.42,25.5-3.67,51.2-5.74,77.03-6.04,4.55-.05,8.43-1.09,12.29-3.24,10.54-5.88,21.72-10.89,31.78-17.38,38.18-24.63,81.71-31.64,126.96-33.1,54.67-1.76,108.85,3.35,162.9,10.17,6.28.79,9.87,3.44,13.44,8.28,11.29,15.3,26.99,26.87,41.93,38.99,4.28,3.47,6.57,6.98,7.47,12.42,2.16,13,4.47,26.03,11.11,38.12,4.95,9.02.4,23.03-8.24,30.34-2.31,1.96-6.06,2.5-7.09,5.84,15.4-2.74,26.64-18.52,22.46-32.61-4.76-16.05-8.44-32.23-9.34-48.83-.23-4.3-2.8-6.57-5.64-9.11-12.73-11.37-25.61-22.62-36.78-35.28,6.96-13,5.71-15.39-9.88-18.24-35.29-6.44-70.87-11.02-106.68-14.16-2.59-.23-6.01,1.2-7.59-2.21-3.64,0-7.27,0-10.91,0-1.35,3.11-4.11,1.65-6.42,1.67-2.45.21-5.09,1.04-6.67-1.67-22.54,0-45.07,0-67.61,0Z"/>
    <g>
      <rect class="cls-6" y="124.56" width="737.64" height="341.5"/>
      <polygon class="cls-4" points="159.33 295.31 159.33 312.51 129.45 312.51 129.45 361.91 109.69 361.91 109.69 311.63 80.29 311.63 80.29 296.63 159.33 295.31"/>
      <rect class="cls-4" x="163.3" y="295.31" width="18.14" height="67.91"/>
      <path class="cls-3" d="M225.58,295.64v31.23c0,1.86-2.84,2.49-3.84.84l-13.74-22.56c-3.57-5.86-10.52-9.51-18.09-9.51h0c-2.06,0-3.73,1.46-3.73,3.27v63.99h14.29l-1.53-39.91c-.06-1.5,2.26-2.02,3.02-.68l16.59,29.04c3.8,6.66,11.41,11,19.89,11.36h0c2.43.1,4.46-1.6,4.46-3.73v-63.35h-17.32Z"/>
      <path class="cls-5" d="M338.69,319.04h23.83c2.69,0,4.87-2,4.87-4.46h0c0-1.56-1.38-2.83-3.09-2.83h-25.53c-3.94,0-7.14-2.92-7.14-6.53v-3.62c0-3.4,3.01-6.15,6.73-6.15h35.02c6.45,0,11.68,4.79,11.68,10.69v15.17c0,4.44-3.93,8.03-8.78,8.03h-30v25.33c0,3.92-3.47,7.1-7.75,7.1h-1.29c-3.16,0-5.7-2.4-5.59-5.29l1.15-32.22c.1-2.91,2.71-5.22,5.89-5.22Z"/>
      <polygon class="cls-3" points="326.68 295.31 326.68 312.51 296.8 312.51 296.8 361.91 277.04 361.91 277.04 311.63 247.64 311.63 247.64 296.63 326.68 295.31"/>
      <path class="cls-5" d="M464.63,372.65s0,0,0,0c3.02-2.57,4.69-6.12,2.28-9.18l-24.94-31.53c-.28-.29-2.22-2.19-2.46-2.5-4.28-5.52,2.82-10.94,4.27-14.73.55-1.65,1.27-4.73.24-8.27-2.26-7.82-10.95-10.75-12.09-11.1-.04-.01-.08-.02-.13-.02h-35.93c-4.1,0-7.42,3.04-7.42,6.79v2.99c0,3.97,3.51,7.18,7.85,7.18h26.13c2.9,0,4.9,3.51,1.2,6.14-1.4.99-3.17,1.44-4.94,1.44h-22.5c-3.54,0-6.44,2.57-6.55,5.81l-1.17,32.74c-.12,3.23-.81,8.5,2.72,8.5l6.82-.25c4.44,0,7.74-.04,8.19-3,0-.02.27-3.72.27-3.75l1.41-19.13c.1-1.3.58-4.99,3.66-7.08.46-.26,1.14-.59,2.01-.87,0,0,2.59-.83,5.75-.4,3,.4,11.1,15.49,29.15,37.41,2.69,3.26,7.22,4.78,11.56,3.82l4.59-1.01Z"/>
      <ellipse class="cls-5" cx="501.19" cy="334.63" rx="38.11" ry="36.98"/>
      <ellipse class="cls-2" cx="501.19" cy="334.63" rx="19.76" ry="18.08"/>
    </g>
  </g>
</svg>