<?xml version="1.0" encoding="UTF-8"?>
<svg id="Layer_1" data-name="Layer 1" xmlns="http://www.w3.org/2000/svg" viewBox="0 0 568.67 593.82">
  <defs>
    <style>
      .cls-1, .cls-2, .cls-3, .cls-4, .cls-5 {
        stroke: #231f20;
        stroke-miterlimit: 10;
      }

      .cls-1, .cls-6 {
        fill: none;
      }

      .cls-2 {
        fill: #fff;
      }

      .cls-4 {
        fill: #231f20;
      }

      .cls-6 {
        stroke-width: 0px;
      }

      .cls-5 {
        fill: #ed1c24;
      }
    </style>
  </defs>
  <rect class="cls-6" x="109.9" y="152.05" width="458.77" height="232.09"/>
  <line class="cls-1" x1="49.02" y1="179.26" x2="49.02" y2="179.26"/>
  <g>
    <path class="cls-3" d="M343.42,195.21c-5.1,2.57-10.78,2.04-16.19,2.99-16.39,2.87-32.54,6.98-45.83,17.3-18.47,14.35-39.41,19.27-62.17,20.62-15.75.93-31.2,4.9-46.08,10.47-4.22,1.58-8.29,3.55-12.42,5.37-9.5,4.2-16.58,9.51-13.11,21.89.99,3.54,1.44,7.81-2.52,11.72-4.25,4.19,3.9,19.53,11.54,20.78-6.87-3.87-7.32-9.96-8.47-15.7-.17-.85-.34-2.25.12-2.61,6.46-5.17,4-12.39,4.04-18.79.02-4.25,1.42-6.58,4.97-8.51,14.54-7.88,30.38-11.35,46.47-13.88,15.86-2.5,31.84-3.9,47.91-4.11,2.83-.04,5.25-.74,7.64-2.2,6.56-3.99,13.51-7.4,19.77-11.81,23.74-16.74,50.82-21.51,78.96-22.5,34-1.2,67.7,2.27,101.31,6.91,3.91.54,6.14,2.34,8.36,5.63,7.02,10.4,16.79,18.26,26.08,26.5,2.66,2.36,4.09,4.75,4.65,8.44,1.34,8.84,2.78,17.69,6.91,25.91,3.08,6.13.25,15.65-5.12,20.62-1.44,1.33-3.77,1.7-4.41,3.97,9.58-1.86,16.57-12.59,13.97-22.16-2.96-10.91-5.25-21.91-5.81-33.19-.14-2.92-1.74-4.47-3.51-6.19-7.92-7.73-15.93-15.38-22.87-23.98,4.33-8.83,3.55-10.46-6.15-12.39-21.95-4.38-44.08-7.49-66.35-9.62-1.61-.15-3.74.81-4.72-1.5h-6.78c-.84,2.11-2.56,1.12-3.99,1.14-1.53.14-3.17.71-4.15-1.14h-42.05Z"/>
    <path class="cls-3" d="M303.86,593.32v-8.9c-4.13-1.7-8.02-.79-11.99-.76-.75,3.52-.81,6.58-.22,9.66,4.07,0,8.14,0,12.21,0Z"/>
    <path class="cls-3" d="M462.57,593.32c-1.09-3.61-1.7-6.98-7.11-7.06-5.53-.09-6.84,2.92-7.82,7.06,4.97,0,9.95,0,14.92,0Z"/>
    <path class="cls-3" d="M252.31,593.32c.15-1.51.39-3.01.42-4.52.03-1.51-.14-3.03-.26-5.29-6.09.95-7.14,6.15-9.65,9.81,3.17,0,6.33,0,9.5,0Z"/>
    <path class="cls-3" d="M356.23,584.68l-.25,1.49c.48-.08.96-.16,1.44-.23-.4-.42-.79-.84-1.19-1.26Z"/>
  </g>
  <path class="cls-2" d="M432.06,246.38c0,8.23,1.22,20.84-6.31,20.84s-19.24,1.82-19.24-6.41-.76-20.38,6.77-20.38,18.78-2.28,18.78,5.94Z"/>
  <polygon class="cls-4" points="208.99 268.1 208.99 279.79 190.41 279.79 190.41 313.36 178.12 313.36 178.12 279.19 159.83 279.19 159.83 269 208.99 268.1"/>
  <rect class="cls-4" x="211.47" y="268.1" width="11.28" height="46.16"/>
  <path class="cls-3" d="M250.2,268.32v21.22c0,1.27-1.77,1.69-2.39.57l-8.55-15.33c-2.22-3.98-6.54-6.47-11.25-6.47h0c-1.28,0-2.32,1-2.32,2.22v43.49h8.89l-.95-27.12c-.04-1.02,1.4-1.37,1.88-.46l10.32,19.74c2.37,4.53,7.09,7.48,12.37,7.72h0c1.51.07,2.77-1.09,2.77-2.53v-43.05h-10.77Z"/>
  <path class="cls-5" d="M320.55,284.22h14.82c1.67,0,3.03-1.36,3.03-3.03h0c0-1.06-.86-1.92-1.92-1.92h-15.88c-2.45,0-4.44-1.99-4.44-4.44v-2.46c0-2.31,1.87-4.18,4.18-4.18h21.78c4.01,0,7.26,3.25,7.26,7.26v10.31c0,3.02-2.44,5.46-5.46,5.46h-18.66v17.22c0,2.66-2.16,4.82-4.82,4.82h-.8c-1.97,0-3.54-1.63-3.48-3.6l.72-21.9c.06-1.98,1.69-3.55,3.66-3.55Z"/>
  <polygon class="cls-3" points="313.08 268.1 313.08 279.79 294.49 279.79 294.49 313.36 282.2 313.36 282.2 279.19 263.92 279.19 263.92 269 313.08 268.1"/>
  <path class="cls-5" d="M398.88,320.65s0,0,0,0c1.88-1.75,2.92-4.16,1.41-6.24l-15.51-21.43c-.17-.2-1.38-1.49-1.53-1.7-2.66-3.75,1.75-7.44,2.66-10.01.34-1.12.79-3.21.15-5.62-1.41-5.31-6.81-7.3-7.52-7.54-.03,0-.05-.01-.08-.01h-22.35c-2.55,0-4.62,2.07-4.62,4.62v2.03c0,2.7,2.19,4.88,4.88,4.88h16.25c1.8,0,3.05,2.39.75,4.18-.87.67-1.97.98-3.07.98h-13.99c-2.2,0-4,1.75-4.08,3.95l-.73,22.25c-.07,2.19-.5,5.78,1.69,5.78l4.24-.17c2.76,0,4.81-.03,5.09-2.04,0-.02.17-2.53.17-2.55l.87-13c.06-.88.36-3.39,2.28-4.81.29-.17.71-.4,1.25-.59,0,0,1.61-.56,3.58-.27,1.87.27,6.9,10.53,18.13,25.42,1.67,2.22,4.49,3.25,7.19,2.6l2.86-.69Z"/>
  <ellipse class="cls-5" cx="421.62" cy="294.81" rx="23.7" ry="25.13"/>
  <circle class="cls-2" cx="421.62" cy="294.81" r="12.29"/>
</svg>